<mxfile host="app.diagrams.net" agent="Mozilla/5.0 (Macintosh; Intel Mac OS X 10_15_7) AppleWebKit/537.36 (KHTML, like Gecko) Chrome/133.0.0.0 Safari/537.36" version="26.0.16">
  <diagram name="Page-1" id="jcSZlcyqOVMo29h_M9nM">
    <mxGraphModel dx="684" dy="456" grid="1" gridSize="10" guides="1" tooltips="1" connect="1" arrows="1" fold="1" page="1" pageScale="1" pageWidth="827" pageHeight="1169" math="0" shadow="0">
      <root>
        <mxCell id="0" />
        <mxCell id="1" parent="0" />
        <mxCell id="VbKa2P00zbD1Cjzhu_Ms-21" style="edgeStyle=orthogonalEdgeStyle;rounded=0;orthogonalLoop=1;jettySize=auto;html=1;exitX=1;exitY=0.5;exitDx=0;exitDy=0;entryX=0;entryY=0.538;entryDx=0;entryDy=0;entryPerimeter=0;" parent="1" source="VbKa2P00zbD1Cjzhu_Ms-5" target="VbKa2P00zbD1Cjzhu_Ms-6" edge="1">
          <mxGeometry relative="1" as="geometry">
            <mxPoint x="100" y="272.30769230769226" as="targetPoint" />
          </mxGeometry>
        </mxCell>
        <mxCell id="VbKa2P00zbD1Cjzhu_Ms-5" value="" style="image;aspect=fixed;perimeter=ellipsePerimeter;html=1;align=center;shadow=0;dashed=0;spacingTop=3;image=img/lib/active_directory/users.svg;" parent="1" vertex="1">
          <mxGeometry x="30" y="239.7" width="40" height="60.6" as="geometry" />
        </mxCell>
        <mxCell id="VbKa2P00zbD1Cjzhu_Ms-22" style="edgeStyle=orthogonalEdgeStyle;rounded=0;orthogonalLoop=1;jettySize=auto;html=1;" parent="1" source="VbKa2P00zbD1Cjzhu_Ms-6" target="VbKa2P00zbD1Cjzhu_Ms-10" edge="1">
          <mxGeometry relative="1" as="geometry" />
        </mxCell>
        <mxCell id="VbKa2P00zbD1Cjzhu_Ms-29" style="edgeStyle=orthogonalEdgeStyle;rounded=0;orthogonalLoop=1;jettySize=auto;html=1;" parent="1" source="VbKa2P00zbD1Cjzhu_Ms-6" target="VbKa2P00zbD1Cjzhu_Ms-16" edge="1">
          <mxGeometry relative="1" as="geometry">
            <mxPoint x="180" y="100" as="targetPoint" />
            <Array as="points">
              <mxPoint x="200" y="75" />
            </Array>
          </mxGeometry>
        </mxCell>
        <mxCell id="VbKa2P00zbD1Cjzhu_Ms-6" value="" style="points=[];aspect=fixed;html=1;align=center;shadow=0;dashed=0;fillColor=#FF6A00;strokeColor=none;shape=mxgraph.alibaba_cloud.domain_and_website;" parent="1" vertex="1">
          <mxGeometry x="160" y="237.8" width="74.35" height="60" as="geometry" />
        </mxCell>
        <mxCell id="VbKa2P00zbD1Cjzhu_Ms-24" style="edgeStyle=orthogonalEdgeStyle;rounded=0;orthogonalLoop=1;jettySize=auto;html=1;" parent="1" source="VbKa2P00zbD1Cjzhu_Ms-8" target="VbKa2P00zbD1Cjzhu_Ms-17" edge="1">
          <mxGeometry relative="1" as="geometry" />
        </mxCell>
        <mxCell id="VbKa2P00zbD1Cjzhu_Ms-26" style="edgeStyle=orthogonalEdgeStyle;rounded=0;orthogonalLoop=1;jettySize=auto;html=1;exitX=0;exitY=0.5;exitDx=0;exitDy=0;exitPerimeter=0;" parent="1" source="VbKa2P00zbD1Cjzhu_Ms-8" target="VbKa2P00zbD1Cjzhu_Ms-10" edge="1">
          <mxGeometry relative="1" as="geometry" />
        </mxCell>
        <mxCell id="VbKa2P00zbD1Cjzhu_Ms-31" style="edgeStyle=orthogonalEdgeStyle;rounded=0;orthogonalLoop=1;jettySize=auto;html=1;" parent="1" source="VbKa2P00zbD1Cjzhu_Ms-8" target="VbKa2P00zbD1Cjzhu_Ms-16" edge="1">
          <mxGeometry relative="1" as="geometry" />
        </mxCell>
        <mxCell id="VbKa2P00zbD1Cjzhu_Ms-8" value="" style="outlineConnect=0;dashed=0;verticalLabelPosition=bottom;verticalAlign=top;align=center;html=1;shape=mxgraph.aws3.lambda_function;fillColor=#F58534;gradientColor=none;" parent="1" vertex="1">
          <mxGeometry x="490" y="235.3" width="63" height="65" as="geometry" />
        </mxCell>
        <mxCell id="VbKa2P00zbD1Cjzhu_Ms-23" style="edgeStyle=orthogonalEdgeStyle;rounded=0;orthogonalLoop=1;jettySize=auto;html=1;" parent="1" source="VbKa2P00zbD1Cjzhu_Ms-10" target="VbKa2P00zbD1Cjzhu_Ms-8" edge="1">
          <mxGeometry relative="1" as="geometry" />
        </mxCell>
        <mxCell id="VbKa2P00zbD1Cjzhu_Ms-10" value="Amazon API Gateway" style="sketch=0;outlineConnect=0;fontColor=#232F3E;gradientColor=none;strokeColor=#ffffff;fillColor=#232F3E;dashed=0;verticalLabelPosition=middle;verticalAlign=bottom;align=center;html=1;whiteSpace=wrap;fontSize=10;fontStyle=1;spacing=3;shape=mxgraph.aws4.productIcon;prIcon=mxgraph.aws4.api_gateway;" parent="1" vertex="1">
          <mxGeometry x="320" y="217.8" width="64" height="100" as="geometry" />
        </mxCell>
        <mxCell id="VbKa2P00zbD1Cjzhu_Ms-30" style="edgeStyle=orthogonalEdgeStyle;rounded=0;orthogonalLoop=1;jettySize=auto;html=1;entryX=0.5;entryY=0;entryDx=0;entryDy=0;entryPerimeter=0;" parent="1" source="VbKa2P00zbD1Cjzhu_Ms-16" target="VbKa2P00zbD1Cjzhu_Ms-8" edge="1">
          <mxGeometry relative="1" as="geometry">
            <mxPoint x="525" y="230" as="targetPoint" />
          </mxGeometry>
        </mxCell>
        <mxCell id="VbKa2P00zbD1Cjzhu_Ms-16" value="Amazon S3" style="sketch=0;outlineConnect=0;fontColor=#232F3E;gradientColor=none;strokeColor=#ffffff;fillColor=#232F3E;dashed=0;verticalLabelPosition=middle;verticalAlign=bottom;align=center;html=1;whiteSpace=wrap;fontSize=10;fontStyle=1;spacing=3;shape=mxgraph.aws4.productIcon;prIcon=mxgraph.aws4.s3;" parent="1" vertex="1">
          <mxGeometry x="486.5" y="50" width="70" height="90" as="geometry" />
        </mxCell>
        <mxCell id="VbKa2P00zbD1Cjzhu_Ms-17" value="Amazon DynamoDB" style="sketch=0;outlineConnect=0;fontColor=#232F3E;gradientColor=none;strokeColor=#ffffff;fillColor=#232F3E;dashed=0;verticalLabelPosition=middle;verticalAlign=bottom;align=center;html=1;whiteSpace=wrap;fontSize=10;fontStyle=1;spacing=3;shape=mxgraph.aws4.productIcon;prIcon=mxgraph.aws4.dynamodb;" parent="1" vertex="1">
          <mxGeometry x="640" y="220.3" width="60" height="95" as="geometry" />
        </mxCell>
        <mxCell id="VbKa2P00zbD1Cjzhu_Ms-25" style="edgeStyle=orthogonalEdgeStyle;rounded=0;orthogonalLoop=1;jettySize=auto;html=1;entryX=1;entryY=0.5;entryDx=0;entryDy=0;entryPerimeter=0;" parent="1" source="VbKa2P00zbD1Cjzhu_Ms-17" target="VbKa2P00zbD1Cjzhu_Ms-8" edge="1">
          <mxGeometry relative="1" as="geometry" />
        </mxCell>
        <mxCell id="VbKa2P00zbD1Cjzhu_Ms-28" style="edgeStyle=orthogonalEdgeStyle;rounded=0;orthogonalLoop=1;jettySize=auto;html=1;entryX=0.911;entryY=0.498;entryDx=0;entryDy=0;entryPerimeter=0;" parent="1" source="VbKa2P00zbD1Cjzhu_Ms-10" target="VbKa2P00zbD1Cjzhu_Ms-6" edge="1">
          <mxGeometry relative="1" as="geometry" />
        </mxCell>
        <mxCell id="RuhszACGKTXBXa5BKKez-2" value="" style="rounded=0;whiteSpace=wrap;html=1;" vertex="1" parent="1">
          <mxGeometry x="30" y="420" width="690" height="300" as="geometry" />
        </mxCell>
        <mxCell id="RuhszACGKTXBXa5BKKez-5" value="" style="image;aspect=fixed;html=1;points=[];align=center;fontSize=12;image=img/lib/azure2/general/Browser.svg;" vertex="1" parent="1">
          <mxGeometry x="177.5" y="520" width="75" height="60" as="geometry" />
        </mxCell>
        <mxCell id="RuhszACGKTXBXa5BKKez-6" value="" style="sketch=0;outlineConnect=0;fontColor=#232F3E;gradientColor=none;fillColor=#232F3D;strokeColor=none;dashed=0;verticalLabelPosition=bottom;verticalAlign=top;align=center;html=1;fontSize=12;fontStyle=0;aspect=fixed;pointerEvents=1;shape=mxgraph.aws4.traditional_server;" vertex="1" parent="1">
          <mxGeometry x="490" y="511" width="45" height="78" as="geometry" />
        </mxCell>
        <mxCell id="RuhszACGKTXBXa5BKKez-7" value="" style="image;aspect=fixed;html=1;points=[];align=center;fontSize=12;image=img/lib/azure2/other/API_Proxy.svg;" vertex="1" parent="1">
          <mxGeometry x="325" y="512" width="78" height="78" as="geometry" />
        </mxCell>
        <mxCell id="RuhszACGKTXBXa5BKKez-8" value="Browser" style="text;html=1;align=center;verticalAlign=middle;whiteSpace=wrap;rounded=0;" vertex="1" parent="1">
          <mxGeometry x="185" y="490" width="60" height="30" as="geometry" />
        </mxCell>
        <mxCell id="RuhszACGKTXBXa5BKKez-9" value="Loopback interface" style="text;html=1;align=center;verticalAlign=middle;whiteSpace=wrap;rounded=0;" vertex="1" parent="1">
          <mxGeometry x="334" y="490" width="60" height="30" as="geometry" />
        </mxCell>
        <mxCell id="RuhszACGKTXBXa5BKKez-10" value="Local Web server" style="text;html=1;align=center;verticalAlign=middle;whiteSpace=wrap;rounded=0;" vertex="1" parent="1">
          <mxGeometry x="482.5" y="470" width="60" height="30" as="geometry" />
        </mxCell>
        <mxCell id="RuhszACGKTXBXa5BKKez-25" value="" style="endArrow=classic;startArrow=classic;html=1;rounded=0;exitX=1.02;exitY=0.548;exitDx=0;exitDy=0;exitPerimeter=0;" edge="1" parent="1" target="RuhszACGKTXBXa5BKKez-6">
          <mxGeometry width="50" height="50" relative="1" as="geometry">
            <mxPoint x="403" y="549" as="sourcePoint" />
            <mxPoint x="541" y="551" as="targetPoint" />
          </mxGeometry>
        </mxCell>
        <mxCell id="RuhszACGKTXBXa5BKKez-26" value="127.0.0.1" style="rounded=1;whiteSpace=wrap;html=1;" vertex="1" parent="1">
          <mxGeometry x="250.65" y="630" width="74.35" height="30" as="geometry" />
        </mxCell>
        <mxCell id="RuhszACGKTXBXa5BKKez-27" value="::1" style="rounded=1;whiteSpace=wrap;html=1;" vertex="1" parent="1">
          <mxGeometry x="412.15" y="630" width="74.35" height="30" as="geometry" />
        </mxCell>
        <mxCell id="RuhszACGKTXBXa5BKKez-28" value="IPv4" style="text;html=1;align=center;verticalAlign=middle;whiteSpace=wrap;rounded=0;" vertex="1" parent="1">
          <mxGeometry x="257.82" y="600" width="60" height="30" as="geometry" />
        </mxCell>
        <mxCell id="RuhszACGKTXBXa5BKKez-29" value="IPv6" style="text;html=1;align=center;verticalAlign=middle;whiteSpace=wrap;rounded=0;" vertex="1" parent="1">
          <mxGeometry x="413.99999999999994" y="600" width="60" height="30" as="geometry" />
        </mxCell>
        <mxCell id="RuhszACGKTXBXa5BKKez-32" value="http://localhost" style="rounded=1;whiteSpace=wrap;html=1;" vertex="1" parent="1">
          <mxGeometry x="323" y="585" width="90" height="20" as="geometry" />
        </mxCell>
        <mxCell id="RuhszACGKTXBXa5BKKez-33" value="" style="endArrow=classic;html=1;rounded=0;entryX=1;entryY=0.5;entryDx=0;entryDy=0;exitX=0.5;exitY=1;exitDx=0;exitDy=0;" edge="1" parent="1" source="RuhszACGKTXBXa5BKKez-32" target="RuhszACGKTXBXa5BKKez-26">
          <mxGeometry width="50" height="50" relative="1" as="geometry">
            <mxPoint x="360" y="630" as="sourcePoint" />
            <mxPoint x="410" y="580" as="targetPoint" />
          </mxGeometry>
        </mxCell>
        <mxCell id="RuhszACGKTXBXa5BKKez-34" value="" style="endArrow=classic;html=1;rounded=0;entryX=0;entryY=0.5;entryDx=0;entryDy=0;exitX=0.504;exitY=1.074;exitDx=0;exitDy=0;exitPerimeter=0;" edge="1" parent="1" source="RuhszACGKTXBXa5BKKez-32" target="RuhszACGKTXBXa5BKKez-27">
          <mxGeometry width="50" height="50" relative="1" as="geometry">
            <mxPoint x="370" y="610" as="sourcePoint" />
            <mxPoint x="335" y="655" as="targetPoint" />
          </mxGeometry>
        </mxCell>
        <mxCell id="RuhszACGKTXBXa5BKKez-35" value="" style="endArrow=classic;startArrow=classic;html=1;rounded=0;exitX=0.964;exitY=0.508;exitDx=0;exitDy=0;exitPerimeter=0;" edge="1" parent="1" source="RuhszACGKTXBXa5BKKez-5">
          <mxGeometry width="50" height="50" relative="1" as="geometry">
            <mxPoint x="247.5" y="549.25" as="sourcePoint" />
            <mxPoint x="325" y="550.75" as="targetPoint" />
          </mxGeometry>
        </mxCell>
      </root>
    </mxGraphModel>
  </diagram>
</mxfile>
